<svg xmlns="http://www.w3.org/2000/svg" width="350" height="210" viewBox="0 0 350 210" fill="none">
  <g filter="url(#filter0_d_0_703)">
    <rect x="60" y="57" width="230" height="90" rx="12" fill="white"/>
    <rect x="60.5" y="57.5" width="229" height="89" rx="11.5" stroke="#F9F9F7"/>
  </g>
  <path d="M204.048 93.2229V111.729H202.484V93.2229H204.048ZM212.665 101.739V103.086H203.527V101.739H212.665ZM213.949 93.2229V94.5702H203.527V93.2229H213.949Z" fill="#2C2F24"/>
  <path d="M214.706 105.069V104.649C214.706 103.649 214.85 102.726 215.138 101.879C215.426 101.031 215.837 100.298 216.371 99.6797C216.913 99.0611 217.561 98.5824 218.315 98.2434C219.069 97.896 219.908 97.7223 220.832 97.7223C221.764 97.7223 222.607 97.896 223.361 98.2434C224.115 98.5824 224.764 99.0611 225.306 99.6797C225.848 100.298 226.263 101.031 226.552 101.879C226.84 102.726 226.984 103.649 226.984 104.649V105.069C226.984 106.069 226.84 106.992 226.552 107.84C226.263 108.679 225.848 109.407 225.306 110.026C224.772 110.644 224.128 111.127 223.374 111.475C222.62 111.814 221.781 111.983 220.857 111.983C219.925 111.983 219.082 111.814 218.328 111.475C217.574 111.127 216.926 110.644 216.383 110.026C215.841 109.407 215.426 108.679 215.138 107.84C214.85 106.992 214.706 106.069 214.706 105.069ZM216.218 104.649V105.069C216.218 105.823 216.32 106.539 216.523 107.217C216.727 107.886 217.023 108.484 217.413 109.009C217.803 109.526 218.286 109.933 218.862 110.229C219.438 110.526 220.103 110.674 220.857 110.674C221.603 110.674 222.26 110.526 222.827 110.229C223.404 109.933 223.887 109.526 224.276 109.009C224.666 108.484 224.959 107.886 225.153 107.217C225.357 106.539 225.458 105.823 225.458 105.069V104.649C225.458 103.904 225.357 103.196 225.153 102.527C224.959 101.857 224.662 101.26 224.264 100.735C223.874 100.209 223.391 99.7941 222.815 99.489C222.239 99.184 221.578 99.0314 220.832 99.0314C220.086 99.0314 219.425 99.184 218.849 99.489C218.281 99.7941 217.798 100.209 217.4 100.735C217.01 101.26 216.714 101.857 216.51 102.527C216.316 103.196 216.218 103.904 216.218 104.649Z" fill="#2C2F24"/>
  <path d="M228.35 105.069V104.649C228.35 103.649 228.494 102.726 228.783 101.879C229.071 101.031 229.482 100.298 230.015 99.6797C230.558 99.0611 231.206 98.5824 231.96 98.2434C232.714 97.896 233.553 97.7223 234.477 97.7223C235.409 97.7223 236.252 97.896 237.006 98.2434C237.76 98.5824 238.408 99.0611 238.951 99.6797C239.493 100.298 239.908 101.031 240.196 101.879C240.484 102.726 240.628 103.649 240.628 104.649V105.069C240.628 106.069 240.484 106.992 240.196 107.84C239.908 108.679 239.493 109.407 238.951 110.026C238.417 110.644 237.773 111.127 237.019 111.475C236.265 111.814 235.426 111.983 234.502 111.983C233.57 111.983 232.727 111.814 231.973 111.475C231.219 111.127 230.57 110.644 230.028 110.026C229.486 109.407 229.071 108.679 228.783 107.84C228.494 106.992 228.35 106.069 228.35 105.069ZM229.863 104.649V105.069C229.863 105.823 229.965 106.539 230.168 107.217C230.371 107.886 230.668 108.484 231.058 109.009C231.447 109.526 231.93 109.933 232.507 110.229C233.083 110.526 233.748 110.674 234.502 110.674C235.248 110.674 235.904 110.526 236.472 110.229C237.048 109.933 237.531 109.526 237.921 109.009C238.311 108.484 238.603 107.886 238.798 107.217C239.002 106.539 239.103 105.823 239.103 105.069V104.649C239.103 103.904 239.002 103.196 238.798 102.527C238.603 101.857 238.307 101.26 237.908 100.735C237.519 100.209 237.036 99.7941 236.46 99.489C235.883 99.184 235.222 99.0314 234.477 99.0314C233.731 99.0314 233.07 99.184 232.494 99.489C231.926 99.7941 231.443 100.209 231.045 100.735C230.655 101.26 230.359 101.857 230.155 102.527C229.96 103.196 229.863 103.904 229.863 104.649Z" fill="#2C2F24"/>
  <path d="M251.769 109.06V92.2061H253.295V111.729H251.871L251.769 109.06ZM242.224 104.993V104.726C242.224 103.658 242.347 102.696 242.593 101.84C242.838 100.976 243.19 100.239 243.647 99.6288C244.114 99.0103 244.673 98.54 245.325 98.218C245.978 97.8875 246.715 97.7223 247.537 97.7223C248.342 97.7223 249.054 97.8536 249.672 98.1163C250.291 98.379 250.82 98.7561 251.261 99.2475C251.71 99.739 252.07 100.324 252.341 101.002C252.621 101.679 252.824 102.434 252.951 103.264V106.658C252.85 107.437 252.663 108.153 252.392 108.806C252.121 109.45 251.761 110.013 251.312 110.496C250.863 110.971 250.32 111.339 249.685 111.602C249.058 111.856 248.333 111.983 247.511 111.983C246.698 111.983 245.965 111.814 245.313 111.475C244.66 111.136 244.105 110.657 243.647 110.039C243.19 109.411 242.838 108.67 242.593 107.814C242.347 106.958 242.224 106.018 242.224 104.993ZM243.749 104.726V104.993C243.749 105.798 243.83 106.543 243.991 107.23C244.152 107.916 244.397 108.513 244.728 109.022C245.058 109.53 245.478 109.928 245.986 110.216C246.495 110.505 247.096 110.649 247.791 110.649C248.664 110.649 249.397 110.483 249.99 110.153C250.583 109.814 251.058 109.369 251.413 108.818C251.769 108.259 252.028 107.649 252.189 106.988V103.035C252.087 102.586 251.939 102.129 251.744 101.662C251.549 101.196 251.282 100.769 250.943 100.379C250.613 99.9805 250.189 99.6627 249.672 99.4255C249.164 99.1797 248.545 99.0569 247.816 99.0569C247.113 99.0569 246.507 99.2009 245.999 99.489C245.49 99.7771 245.067 100.18 244.728 100.696C244.397 101.205 244.152 101.802 243.991 102.489C243.83 103.175 243.749 103.921 243.749 104.726Z" fill="#2C2F24"/>
  <path d="M143.176 93.1042H148.919C154.698 93.1042 159.292 96.6587 159.292 102.653C159.292 109.185 155.344 112.524 148.919 112.524H143.176V93.1042ZM145.939 110.083H148.847C153.621 110.083 156.277 107.786 156.277 102.76C156.277 98.2379 153.19 95.5449 149.17 95.5449H145.903V110.083H145.939ZM165.754 95.1501H162.81V92.2061H165.754V95.1501ZM162.954 98.3451H165.575V112.561H162.954V98.3451ZM170.456 93.1042H176.199C181.979 93.1042 186.574 96.6587 186.574 102.653C186.574 109.185 182.626 112.524 176.199 112.524H170.456V93.1042ZM173.256 110.083H176.164C180.938 110.083 183.594 107.786 183.594 102.76C183.594 98.2379 180.507 95.5449 176.485 95.5449H173.22V110.083H173.256ZM193.034 95.1501H190.09V92.2061H193.034V95.1501ZM190.271 98.3451H192.89V112.561H190.271V98.3451Z" fill="#2C2F24"/>
  <path fill-rule="evenodd" clip-rule="evenodd" d="M114.953 110.836C121.414 110.62 126.512 105.488 126.583 99.1329V93.6424H133.69V99.7095C133.547 109.581 124.967 117.333 114.953 117.55C104.757 117.477 96.1072 109.651 96 99.7068V88.8315C96 87.719 96.7177 87 97.7935 87H126.583V93.6424H104.004C103.429 93.6424 103.071 94.0019 103.071 94.5758V99.0271C103.143 105.452 108.349 110.764 114.953 110.836Z" fill="#FC9153"/>
  <defs>
    <filter id="filter0_d_0_703" x="0.425537" y="0.40426" width="349.149" height="209.149" filterUnits="userSpaceOnUse" color-interpolation-filters="sRGB">
      <feFlood flood-opacity="0" result="BackgroundImageFix"/>
      <feColorMatrix in="SourceAlpha" type="matrix" values="0 0 0 0 0 0 0 0 0 0 0 0 0 0 0 0 0 0 127 0" result="hardAlpha"/>
      <feOffset dy="2.97872"/>
      <feGaussianBlur stdDeviation="29.7872"/>
      <feComposite in2="hardAlpha" operator="out"/>
      <feColorMatrix type="matrix" values="0 0 0 0 0 0 0 0 0 0 0 0 0 0 0 0 0 0 0.08 0"/>
      <feBlend mode="normal" in2="BackgroundImageFix" result="effect1_dropShadow_0_703"/>
      <feBlend mode="normal" in="SourceGraphic" in2="effect1_dropShadow_0_703" result="shape"/>
    </filter>
  </defs>
</svg>