<svg xmlns="http://www.w3.org/2000/svg" width="342" height="210" viewBox="0 0 342 210" fill="none">
  <g filter="url(#filter0_d_0_670)">
    <rect x="60.5455" y="57" width="220.909" height="90" rx="12" fill="white"/>
    <rect x="61.0455" y="57.5" width="219.909" height="89" rx="11.5" stroke="#F9F9F7"/>
  </g>
  <path d="M210.849 90.071H206.749C206.517 90.071 206.402 90.1866 206.402 90.4176V106.646C206.402 107.455 206.142 108.061 205.795 108.523C205.449 108.986 204.987 109.101 204.409 109.101C203.832 109.101 203.341 108.87 202.994 108.523C202.648 108.061 202.417 107.455 202.417 106.646V90.4176C202.417 90.1866 202.186 90.071 202.07 90.071H197.941C197.71 90.071 197.594 90.1866 197.594 90.4176V106.762C197.594 108.87 198.057 110.862 199.356 112.162C200.626 113.461 202.388 114.154 204.409 114.154C206.517 114.154 208.279 113.461 209.463 112.162C210.733 110.891 211.224 109.014 211.224 106.762V90.4176C211.34 90.3023 211.109 90.071 210.849 90.071ZM226.587 101.593C227.28 100.9 228.58 99.254 228.58 97.1171C228.58 94.6339 227.627 93.1322 226.905 92.2946C225.605 90.9086 223.872 90.1866 221.851 90.1866H215.383C215.123 90.1866 215.007 90.4176 215.007 90.533V113.461C215.007 113.692 215.238 113.808 215.383 113.808H222.226C224.334 113.808 226.327 112.999 227.627 111.325C228.32 110.4 229.157 108.841 229.157 106.502C228.926 103.701 227.193 102.055 226.587 101.593ZM219.772 94.8935H221.88C222.458 94.8935 222.919 95.0088 223.266 95.471C223.641 95.8464 223.757 96.424 223.757 97.1459C223.757 97.8677 223.641 98.4163 223.266 98.9075C222.919 99.2539 222.458 99.4849 221.996 99.4849H219.888V94.8935H219.772ZM223.526 108.408C223.179 108.87 222.717 108.985 221.995 108.985H219.657V104.018H221.995C222.573 104.018 223.035 104.278 223.381 104.625C223.757 105.087 223.988 105.664 223.988 106.386C224.103 107.339 223.901 107.917 223.526 108.408ZM139.899 103.585C140.361 103.239 140.736 103.008 141.083 102.517C141.891 101.593 142.959 99.9468 142.959 97.348C142.959 94.8645 142.006 93.2475 141.083 92.2946C139.899 90.9086 138.137 90.1866 136.145 90.071H129.33C129.099 90.071 128.983 90.3023 128.983 90.4176V113.317C128.983 113.548 129.214 113.664 129.33 113.664H133.43C133.661 113.664 133.777 113.432 133.777 113.317V104.856H135.192L137.762 113.548C137.762 113.664 138.021 113.779 138.137 113.779H142.469C142.584 113.779 142.7 113.664 142.815 113.664C142.931 113.664 142.931 113.432 142.931 113.317L139.899 103.585ZM137.3 99.3403C136.953 99.8027 136.375 100.062 135.654 100.062H133.661V94.8935H135.654C136.347 94.8935 136.924 95.1245 137.3 95.5865C137.762 96.0776 137.906 96.655 137.906 97.4636C137.906 98.301 137.79 98.8784 137.3 99.3403ZM174.637 101.593C175.359 100.9 176.63 99.254 176.63 97.1171C176.63 94.6339 175.706 93.1322 174.984 92.2946C173.685 90.9086 171.923 90.1866 169.931 90.1866H163.491C163.26 90.1866 163.144 90.4176 163.144 90.533V113.461C163.144 113.692 163.375 113.808 163.491 113.808H170.306C172.414 113.808 174.406 112.999 175.735 111.325C176.428 110.4 177.265 108.841 177.265 106.502C177.121 103.701 175.359 102.055 174.637 101.593ZM167.851 94.8935H169.959C170.537 94.8935 170.999 95.0088 171.346 95.471C171.692 95.8464 171.808 96.424 171.808 97.1459C171.808 97.8677 171.692 98.4163 171.346 98.9075C170.999 99.2539 170.537 99.4849 170.075 99.4849H167.967V94.8935H167.851ZM171.721 108.408C171.374 108.87 170.912 108.985 170.19 108.985H167.851V104.018H170.19C170.768 104.018 171.23 104.278 171.576 104.625C171.923 105.087 172.183 105.664 172.183 106.386C172.212 107.339 172.096 107.917 171.721 108.408ZM118.847 89.7246C116.739 89.7246 114.978 90.4176 113.794 91.717C112.523 93.0165 112.061 94.8645 112.061 97.117V106.877C112.061 108.986 112.523 110.978 113.794 112.277C115.093 113.577 116.855 114.27 118.847 114.27C120.955 114.27 122.746 113.577 123.929 112.277C125.2 111.007 125.662 109.13 125.662 106.877V101.506C125.662 101.246 125.431 101.015 125.2 101.015H119.223C118.963 101.015 118.732 101.246 118.732 101.506V105.491C118.732 105.722 118.963 105.953 119.223 105.953H120.753V106.906C120.753 107.715 120.522 108.437 120.176 108.899C119.829 109.361 119.338 109.476 118.761 109.476C118.183 109.476 117.721 109.245 117.346 108.899C116.999 108.437 116.768 107.715 116.768 106.906V97.2616C116.768 96.424 116.999 95.7021 117.346 95.2687C117.721 94.8067 118.183 94.6913 118.761 94.6913C119.338 94.6913 119.829 94.9224 120.176 95.2687C120.522 95.7308 120.753 96.424 120.753 97.2616V98.1856C120.753 98.4164 120.984 98.5608 121.1 98.5608H125.2C125.431 98.5608 125.547 98.4164 125.547 98.1856V97.2616C125.547 95.1533 125.085 93.1609 123.785 91.8614C122.746 90.4176 120.84 89.7246 118.847 89.7246ZM159.044 90.071H154.943C154.712 90.071 154.597 90.1866 154.597 90.4176V106.646C154.597 107.455 154.337 108.061 153.99 108.523C153.644 108.986 153.182 109.101 152.604 109.101C152.027 109.101 151.536 108.87 151.189 108.523C150.843 108.061 150.612 107.455 150.612 106.646V90.4176C150.612 90.1866 150.352 90.071 150.237 90.071H146.136C145.905 90.071 145.79 90.1866 145.79 90.4176V106.762C145.79 108.87 146.28 110.862 147.551 112.162C148.85 113.461 150.612 114.154 152.604 114.154C154.713 114.154 156.503 113.461 157.658 112.162C158.957 110.891 159.419 109.014 159.419 106.762V90.4176C159.39 90.3023 159.275 90.071 159.044 90.071ZM193.581 90.071H189.48C189.249 90.071 189.134 90.3023 189.134 90.4176V99.3403H185.033V90.4176C185.033 90.1866 184.802 90.071 184.687 90.071H180.586C180.355 90.071 180.24 90.3023 180.24 90.4176V113.317C180.24 113.548 180.471 113.664 180.586 113.664H184.687C184.918 113.664 185.033 113.432 185.033 113.317V104.163H189.134V113.317C189.134 113.548 189.365 113.664 189.48 113.664H193.581C193.812 113.664 193.927 113.432 193.927 113.317V90.4176C193.927 90.3023 193.812 90.071 193.581 90.071Z" fill="#F63440"/>
  <defs>
    <filter id="filter0_d_0_670" x="0.971069" y="0.40426" width="340.058" height="209.149" filterUnits="userSpaceOnUse" color-interpolation-filters="sRGB">
      <feFlood flood-opacity="0" result="BackgroundImageFix"/>
      <feColorMatrix in="SourceAlpha" type="matrix" values="0 0 0 0 0 0 0 0 0 0 0 0 0 0 0 0 0 0 127 0" result="hardAlpha"/>
      <feOffset dy="2.97872"/>
      <feGaussianBlur stdDeviation="29.7872"/>
      <feComposite in2="hardAlpha" operator="out"/>
      <feColorMatrix type="matrix" values="0 0 0 0 0 0 0 0 0 0 0 0 0 0 0 0 0 0 0.08 0"/>
      <feBlend mode="normal" in2="BackgroundImageFix" result="effect1_dropShadow_0_670"/>
      <feBlend mode="normal" in="SourceGraphic" in2="effect1_dropShadow_0_670" result="shape"/>
    </filter>
  </defs>
</svg>