<svg xmlns="http://www.w3.org/2000/svg" width="350" height="210" viewBox="0 0 350 210" fill="none">
  <g filter="url(#filter0_d_0_691)">
    <rect x="60" y="57" width="230" height="90" rx="12" fill="white"/>
    <rect x="60.5" y="57.5" width="229" height="89" rx="11.5" stroke="#F9F9F7"/>
  </g>
  <path d="M118.047 99.0744C119.829 100.865 121.287 103.798 120.453 105.54C118.222 110.2 101.576 118.373 100.162 116.958C98.7483 115.544 106.926 98.8922 111.586 96.6599C113.329 95.8257 116.262 97.2835 118.054 99.0659C118.053 99.0673 118.051 99.0701 118.047 99.0744Z" fill="#FF8200"/>
  <path d="M126.864 97.105C126.575 96.033 125.837 94.9496 124.733 94.8215C122.71 94.5866 119.523 98.1627 119.751 99.0112C119.978 99.8597 124.483 101.356 126.164 100.147C127.031 99.5237 127.153 98.177 126.869 97.105H126.864ZM120.605 87.1981C122.107 87.6052 123.626 88.6402 123.805 90.1862C124.135 93.0221 119.121 97.4922 117.931 97.1733C116.741 96.8544 114.644 90.5393 116.34 88.1804C117.214 86.9646 119.101 86.7938 120.606 87.1924C120.605 87.1924 120.605 87.1952 120.605 87.1981Z" fill="#43B02A"/>
  <path d="M165.373 103.98L163.884 103.754C162.465 103.545 161.643 103.085 161.643 102.249C161.643 101.29 162.712 100.695 164.293 100.695C165.41 100.695 166.32 101.113 167.191 101.557L167.365 101.646C167.566 101.748 167.782 101.799 168.005 101.799C168.522 101.799 168.999 101.519 169.248 101.066L169.369 100.847C169.561 100.497 169.603 100.094 169.485 99.7123C169.366 99.3322 169.106 99.0247 168.75 98.8467C167.482 98.2118 166.105 97.6409 164.291 97.6409C160.502 97.6409 158.062 99.4703 158.062 102.416C158.062 104.833 159.798 106.349 163.087 106.798L164.589 106.993C166.176 107.215 166.948 107.685 166.948 108.429C166.948 109.117 166.576 110.029 164.118 110.029C162.762 110.029 161.386 109.685 160.268 108.977C160.045 108.836 159.788 108.761 159.525 108.761C159.034 108.761 158.568 109.021 158.309 109.44L158.225 109.575C158.017 109.911 157.955 110.324 158.053 110.707C158.151 111.09 158.393 111.406 158.735 111.597C160.682 112.691 162.932 113.08 164.116 113.08C168.067 113.08 170.511 111.349 170.511 108.302C170.515 105.868 168.784 104.47 165.373 103.98ZM211.303 109.302C211.019 108.983 210.608 108.801 210.181 108.801C209.892 108.801 209.611 108.883 209.364 109.038C208.56 109.548 207.68 109.818 206.816 109.818C204.443 109.818 202.72 107.944 202.72 105.361C202.72 102.779 204.443 100.904 206.816 100.904C207.727 100.904 208.543 101.152 209.309 101.661C209.902 102.056 210.754 101.954 211.242 101.433L211.369 101.298C211.703 100.942 211.861 100.458 211.804 99.9728C211.749 99.4959 211.488 99.0702 211.091 98.8068C209.924 98.0324 208.477 97.6238 206.907 97.6238C202.352 97.6238 199.17 100.806 199.17 105.36C199.17 109.915 202.352 113.097 206.907 113.097C208.484 113.097 209.939 112.68 211.115 111.89C211.508 111.626 211.767 111.205 211.826 110.732C211.885 110.257 211.736 109.78 211.417 109.424L211.303 109.302ZM137.583 92.3906C136.397 92.3906 135.469 93.3316 135.469 94.5317C135.469 95.7375 136.377 96.6458 137.583 96.6458C138.783 96.6458 139.724 95.7176 139.724 94.5317C139.724 93.3316 138.783 92.3906 137.583 92.3906ZM138.222 97.7505H136.975C136.364 97.7505 135.869 98.2459 135.869 98.8567V111.615C135.869 112.226 136.364 112.721 136.975 112.721H138.222C138.833 112.721 139.328 112.226 139.328 111.615V98.8567C139.328 98.2459 138.833 97.7505 138.222 97.7505ZM179.169 109.752C177.77 109.746 176.143 108.65 176.143 106.729V100.974H179.179C179.79 100.974 180.286 100.478 180.286 99.8674V98.8567C180.286 98.2459 179.79 97.7505 179.179 97.7505H176.143V94.4292C176.143 93.8185 175.647 93.3231 175.037 93.3231H173.721C173.111 93.3231 172.615 93.8185 172.615 94.4292V106.523C172.615 110.005 175.257 113.083 178.916 113.083H178.917C179.282 113.083 179.626 112.94 179.887 112.68C180.146 112.421 180.29 112.076 180.29 111.71V110.858C180.287 110.244 179.784 109.754 179.169 109.752ZM148.946 97.6253C144.519 97.6253 142.049 101.167 142.049 104.197V111.615C142.049 112.226 142.544 112.721 143.155 112.721H144.416C145.027 112.721 145.522 112.226 145.522 111.615V104.753C145.522 102.456 146.915 100.934 148.945 100.934C150.975 100.934 152.367 102.456 152.367 104.753V111.615C152.367 112.226 152.862 112.721 153.473 112.721H154.735C155.345 112.721 155.841 112.226 155.841 111.615V104.197C155.844 101.166 153.375 97.6253 148.946 97.6253ZM240.025 97.779C239.545 97.6737 238.342 97.6253 237.718 97.6253C237.663 97.6253 237.607 97.6267 237.553 97.6267C234.125 97.6267 230.959 100.421 230.959 104.274C230.959 104.276 230.958 104.281 230.958 104.283V111.615C230.958 112.226 231.453 112.721 232.064 112.721H233.325C233.936 112.721 234.431 112.226 234.431 111.615V104.4C234.431 102.303 235.929 100.935 237.764 100.935C238.1 100.941 238.46 100.978 238.813 101.048C238.91 101.066 239.007 101.076 239.105 101.076C239.805 101.076 240.412 100.592 240.576 99.9116C240.665 99.5372 240.732 99.2596 240.795 99.0047C240.857 98.7499 240.815 98.4623 240.67 98.2289C240.523 97.9982 240.294 97.8374 240.025 97.779ZM249.277 100.974C249.887 100.974 250.383 100.478 250.383 99.8674V98.8567C250.383 98.2459 249.887 97.7505 249.277 97.7505H246.24V94.4292C246.24 93.8185 245.745 93.3231 245.133 93.3231H243.817C243.206 93.3231 242.711 93.8185 242.711 94.4292V106.523C242.711 110.005 245.353 113.083 249.012 113.083H249.013C249.379 113.083 249.722 112.94 249.983 112.68C250.242 112.421 250.386 112.076 250.386 111.71V110.858C250.386 110.243 249.883 109.753 249.268 109.752C247.869 109.746 246.242 108.65 246.242 106.729V100.974H249.277ZM225.201 98.8125C225.199 98.8111 225.196 98.8097 225.195 98.8083C224.027 98.0338 222.581 97.6253 221.011 97.6253C220.984 97.6253 220.957 97.6267 220.93 97.6267C220.903 97.6267 220.876 97.6253 220.849 97.6253C219.278 97.6253 217.83 98.0338 216.665 98.8083C216.663 98.8097 216.66 98.8111 216.659 98.8125C214.558 100.135 213.275 102.471 213.275 105.363C213.275 108.391 214.683 110.811 216.964 112.093C218.027 112.721 219.29 113.096 220.651 113.097C223.136 113.099 224.638 111.691 225.109 111.076V111.605C225.109 112.216 225.605 112.711 226.216 112.711H227.477C228.088 112.711 228.583 112.216 228.583 111.605V105.361C228.584 102.47 227.302 100.134 225.201 98.8125ZM222.319 109.586C221.915 109.72 221.503 109.797 221.095 109.814C221.065 109.816 221.035 109.816 221.005 109.817C220.98 109.817 220.955 109.818 220.93 109.818C220.904 109.818 220.88 109.817 220.854 109.817C220.824 109.817 220.794 109.816 220.765 109.814C220.356 109.797 219.943 109.72 219.54 109.586C217.909 109.01 216.825 107.41 216.825 105.361C216.825 102.944 218.336 101.146 220.476 100.927C220.487 100.925 220.498 100.925 220.51 100.924C220.558 100.919 220.607 100.915 220.656 100.912C220.683 100.911 220.712 100.91 220.739 100.908C220.786 100.907 220.834 100.905 220.881 100.905C220.898 100.905 220.914 100.904 220.931 100.904C220.948 100.904 220.964 100.904 220.981 100.905C221.029 100.905 221.076 100.907 221.123 100.908C221.152 100.91 221.179 100.911 221.206 100.912C221.254 100.915 221.304 100.918 221.353 100.924C221.364 100.925 221.375 100.925 221.387 100.927C223.526 101.146 225.037 102.942 225.037 105.361C225.034 107.408 223.951 109.01 222.319 109.586ZM193.712 98.8125C193.71 98.8111 193.707 98.8097 193.706 98.8083C192.539 98.0338 191.092 97.6253 189.522 97.6253C189.495 97.6253 189.468 97.6267 189.441 97.6267C189.414 97.6267 189.387 97.6253 189.36 97.6253C187.789 97.6253 186.342 98.0338 185.176 98.8083C185.174 98.8097 185.171 98.8111 185.17 98.8125C183.069 100.135 181.786 102.471 181.786 105.363C181.786 108.391 183.194 110.811 185.475 112.093C186.538 112.721 187.801 113.096 189.162 113.097C191.647 113.099 193.149 111.691 193.621 111.076V111.605C193.621 112.216 194.116 112.711 194.727 112.711H195.988C196.599 112.711 197.094 112.216 197.094 111.605V105.361C197.096 102.47 195.813 100.134 193.712 98.8125ZM190.83 109.586C190.426 109.72 190.015 109.797 189.606 109.814C189.576 109.816 189.546 109.816 189.516 109.817C189.491 109.817 189.466 109.818 189.441 109.818C189.415 109.818 189.391 109.817 189.365 109.817C189.335 109.817 189.306 109.816 189.276 109.814C188.867 109.797 188.454 109.72 188.051 109.586C186.42 109.01 185.337 107.41 185.337 105.361C185.337 102.944 186.847 101.146 188.987 100.927C188.998 100.925 189.009 100.925 189.021 100.924C189.069 100.919 189.118 100.915 189.167 100.912C189.195 100.911 189.223 100.91 189.25 100.908C189.297 100.907 189.345 100.905 189.392 100.905C189.409 100.905 189.425 100.904 189.442 100.904C189.459 100.904 189.475 100.904 189.492 100.905C189.54 100.905 189.587 100.907 189.634 100.908C189.663 100.91 189.69 100.911 189.717 100.912C189.765 100.915 189.815 100.918 189.864 100.924C189.875 100.925 189.886 100.925 189.898 100.927C192.037 101.146 193.548 102.942 193.548 105.361C193.545 107.408 192.462 109.01 190.83 109.586Z" fill="#43B02A"/>
  <defs>
    <filter id="filter0_d_0_691" x="0.425537" y="0.40426" width="349.149" height="209.149" filterUnits="userSpaceOnUse" color-interpolation-filters="sRGB">
      <feFlood flood-opacity="0" result="BackgroundImageFix"/>
      <feColorMatrix in="SourceAlpha" type="matrix" values="0 0 0 0 0 0 0 0 0 0 0 0 0 0 0 0 0 0 127 0" result="hardAlpha"/>
      <feOffset dy="2.97872"/>
      <feGaussianBlur stdDeviation="29.7872"/>
      <feComposite in2="hardAlpha" operator="out"/>
      <feColorMatrix type="matrix" values="0 0 0 0 0 0 0 0 0 0 0 0 0 0 0 0 0 0 0.08 0"/>
      <feBlend mode="normal" in2="BackgroundImageFix" result="effect1_dropShadow_0_691"/>
      <feBlend mode="normal" in="SourceGraphic" in2="effect1_dropShadow_0_691" result="shape"/>
    </filter>
  </defs>
</svg>