<svg xmlns="http://www.w3.org/2000/svg" width="350" height="210" viewBox="0 0 350 210" fill="none">
  <g filter="url(#filter0_d_0_698)">
    <rect x="60" y="57" width="230" height="90" rx="12" fill="white"/>
    <rect x="60.5" y="57.5" width="229" height="89" rx="11.5" stroke="#F9F9F7"/>
  </g>
  <path d="M148.606 91.1756C150 90.3188 151.661 89.9799 153.282 90.0009C155.721 90.0877 158.15 90.7244 160.297 91.889C158.927 93.1076 157.48 94.2402 156.089 95.4396C155.176 95.2222 154.232 94.8733 153.285 95.0907C152.652 95.2304 152.009 95.5337 151.637 96.0909C151.264 96.6435 151.311 97.4419 151.765 97.9361C152.302 98.5426 153.096 98.8157 153.839 99.0706C155.488 99.5894 157.221 99.9758 158.677 100.952C159.643 101.579 160.452 102.479 160.857 103.563C161.256 104.572 161.309 105.682 161.229 106.755C161.146 108.192 160.787 109.65 159.978 110.859C159.139 112.127 157.809 112.986 156.417 113.538C153.467 114.654 150.118 114.414 147.222 113.246C146.167 112.823 145.165 112.279 144.234 111.626C145.253 110.224 146.287 108.833 147.336 107.453C148.612 108.035 149.904 108.588 151.241 109.005C152.144 109.321 153.18 109.18 153.995 108.695C154.619 108.333 155.03 107.637 155.019 106.913C155.055 106.306 154.685 105.755 154.217 105.406C153.251 104.69 152.046 104.447 150.917 104.106C149.483 103.672 147.985 103.225 146.826 102.231C145.877 101.428 145.369 100.215 145.226 99.0021C145.069 97.5332 145.151 96.005 145.71 94.6221C146.265 93.183 147.284 91.9702 148.606 91.1756ZM113.731 90.5837C115.678 90.5855 117.626 90.5837 119.573 90.5855V103.986C119.573 105.423 119.66 106.876 119.392 108.298C119.132 109.716 118.544 111.106 117.532 112.153C116.427 113.315 114.862 113.954 113.288 114.138C112.147 114.269 110.964 114.269 109.861 113.908C108.241 113.411 106.91 112.228 106 110.823C107.148 109.605 108.309 108.402 109.456 107.184C109.892 107.755 110.356 108.316 110.929 108.758C111.316 109.052 111.821 109.243 112.307 109.098C112.821 109.003 113.237 108.604 113.425 108.127C113.665 107.54 113.722 106.897 113.73 106.269L113.731 90.5837ZM122.732 90.5937C124.678 90.5864 126.626 90.5746 128.572 90.5864C128.582 94.2649 128.573 97.947 128.576 101.626C128.582 103.043 128.519 104.481 128.858 105.87C129.079 106.803 129.53 107.737 130.336 108.3C131.234 108.933 132.391 109.045 133.457 108.943C134.371 108.849 135.291 108.446 135.849 107.695C136.331 107.067 136.575 106.294 136.709 105.523C136.864 104.613 136.898 103.686 136.896 102.764C136.895 98.7052 136.897 94.6431 136.895 90.5837C138.841 90.5782 140.789 90.5837 142.737 90.5819C142.739 95.1044 142.737 99.6278 142.738 104.15C142.734 105.685 142.692 107.247 142.237 108.724C141.833 110.059 141.036 111.241 139.948 112.115C138.669 113.151 137.074 113.718 135.47 114.007C133.673 114.318 131.821 114.311 130.027 113.985C128.44 113.684 126.863 113.104 125.603 112.066C124.937 111.506 124.352 110.839 123.926 110.08C123.165 108.756 122.883 107.219 122.791 105.713C122.71 104.545 122.741 103.373 122.734 102.201C122.732 98.3334 122.733 94.464 122.732 90.5937ZM161.278 90.5855C167.605 90.5837 173.932 90.5855 180.257 90.5855C180.278 92.2928 180.294 94.0018 180.248 95.7091L173.7 95.7082C173.691 101.785 173.709 107.863 173.705 113.94C171.757 113.944 169.807 113.94 167.861 113.942C167.832 107.866 167.855 101.787 167.848 95.71C165.661 95.7091 163.475 95.7045 161.29 95.7127C161.262 94.0037 161.287 92.2946 161.278 90.5855ZM187.62 90.5855C192.446 90.5837 197.273 90.5837 202.102 90.5855L202.101 95.6972C199.223 95.7273 196.345 95.7008 193.468 95.7109C193.468 97.0354 193.465 98.359 193.468 99.6853C195.863 99.7173 198.258 99.6926 200.653 99.7018C200.645 101.424 200.666 103.146 200.643 104.868C200.12 104.936 199.574 104.877 199.042 104.897C197.183 104.897 195.326 104.895 193.467 104.897C193.47 106.203 193.461 107.506 193.472 108.813C196.348 108.81 199.225 108.813 202.102 108.811C202.101 110.521 202.102 112.232 202.1 113.943H187.619L187.62 90.5855ZM212.097 90.5919C214.24 90.5937 216.382 90.5901 218.524 90.5937C221.457 98.3773 224.371 106.164 227.307 113.943C225.157 113.954 223.007 113.944 220.857 113.949C220.358 112.613 219.864 111.276 219.374 109.937C216.609 109.927 213.843 109.931 211.078 109.935C210.549 111.274 210.012 112.61 209.485 113.949C207.351 113.93 205.215 113.948 203.083 113.937C206.09 106.156 209.088 98.3727 212.097 90.5919ZM224.318 90.5892C230.65 90.5782 236.982 90.5855 243.314 90.5855C243.31 92.2937 243.318 94.0009 243.31 95.7082C241.121 95.7063 238.931 95.7136 236.741 95.7054C236.72 101.784 236.762 107.864 236.745 113.942C234.794 113.939 232.845 113.945 230.896 113.939C230.878 107.863 230.894 101.785 230.888 95.7091C228.812 95.7091 226.734 95.7063 224.658 95.7109C224.541 95.7099 224.424 95.6933 224.31 95.6616C224.328 93.9717 224.309 92.2791 224.318 90.5892Z" fill="#FF3131"/>
  <path d="M214.146 96.1095C215.903 98.9914 217.68 101.862 219.432 104.746C218.5 104.723 217.566 104.659 216.634 104.648C216.82 105.608 217.019 106.563 217.213 107.519C216.717 107.615 216.226 107.751 215.723 107.804C215.546 106.849 215.342 105.898 215.15 104.945C214.296 105.308 213.472 105.737 212.621 106.108C212.845 104.367 213.147 102.635 213.401 100.897C213.654 99.302 213.879 97.7035 214.146 96.1095Z" fill="white"/>
  <defs>
    <filter id="filter0_d_0_698" x="0.425537" y="0.40426" width="349.149" height="209.149" filterUnits="userSpaceOnUse" color-interpolation-filters="sRGB">
      <feFlood flood-opacity="0" result="BackgroundImageFix"/>
      <feColorMatrix in="SourceAlpha" type="matrix" values="0 0 0 0 0 0 0 0 0 0 0 0 0 0 0 0 0 0 127 0" result="hardAlpha"/>
      <feOffset dy="2.97872"/>
      <feGaussianBlur stdDeviation="29.7872"/>
      <feComposite in2="hardAlpha" operator="out"/>
      <feColorMatrix type="matrix" values="0 0 0 0 0 0 0 0 0 0 0 0 0 0 0 0 0 0 0.08 0"/>
      <feBlend mode="normal" in2="BackgroundImageFix" result="effect1_dropShadow_0_698"/>
      <feBlend mode="normal" in="SourceGraphic" in2="effect1_dropShadow_0_698" result="shape"/>
    </filter>
  </defs>
</svg>