<svg width="341" height="210" viewBox="0 0 341 210" fill="none" xmlns="http://www.w3.org/2000/svg">
<g filter="url(#filter0_d_0_673)">
<rect x="60.4546" y="57" width="220.909" height="90" rx="12" fill="white"/>
<rect x="60.9546" y="57.5" width="219.909" height="89" rx="11.5" stroke="#F9F9F7"/>
</g>
<path d="M94.7983 113.884V89.7246H104.85C109.174 89.7246 111.986 92.8755 111.986 97.0662C111.986 101.257 109.174 104.416 104.85 104.416H98.6424V113.868L94.7983 113.884ZM98.6424 92.9858V101.186H104.676C106.598 101.186 108.142 99.2324 108.142 97.0662C108.142 94.8999 106.567 92.9858 104.676 92.9858H98.6424ZM131.38 108.811C132.617 108.567 133.822 108.331 135.019 108.126C135.264 109.496 136.083 111.143 138.864 111.143C139.486 111.143 142.534 110.906 142.534 108.709C142.534 104.557 131.9 108.843 131.9 101.399C131.9 98.4447 134.846 96.2154 138.556 96.2154C142.267 96.2154 145.417 97.7909 145.937 101.635C144.701 101.848 143.495 102.084 142.298 102.328C142.054 100.162 140.723 99.3742 138.659 99.3742C136.839 99.3742 135.602 100.335 135.602 101.399C135.602 102.809 136.91 103.179 138.966 103.392C142.905 103.801 146.205 104.66 146.205 108.709C146.205 112.348 143.054 114.27 138.864 114.27C134.405 114.27 131.861 111.907 131.38 108.811ZM147.174 99.3585V96.5226H150.16V91.4812H153.87V96.4911H157.47V99.3585H153.87V109.205C153.87 110.576 154.279 110.993 155.445 110.993C155.957 110.993 157.092 110.922 157.092 110.922V113.908C157.092 113.908 155.76 114.042 154.445 114.042C151.184 114.042 150.12 112.293 150.12 108.969V99.3585H147.174ZM170.38 104.211C170.38 101.564 169.797 99.3348 167.017 99.3348C164.37 99.3348 163.653 101.564 163.653 104.211V113.884H159.943V96.5542H163.307L163.653 98.4368C164.165 97.4758 166.229 96.2076 168.254 96.2076C169.222 96.1507 170.188 96.3645 171.042 96.825C171.896 97.2855 172.605 97.9745 173.09 98.8149C174.02 97.2395 176.241 96.2076 178.305 96.2076C183.031 96.2076 184.481 99.0906 184.481 104.242V113.916H180.826V104.211C180.826 101.596 180.109 99.3033 177.462 99.3033C174.681 99.3033 174.098 101.533 174.098 104.211V113.884H170.396L170.38 104.211ZM191.208 102.509C190.01 102.305 188.774 102.029 187.537 101.824C187.915 97.9799 191.074 96.1918 194.713 96.1918C199.621 96.1918 202.157 98.555 202.157 103.329V109.37C202.157 110.402 202.362 110.985 203.087 110.985C203.389 110.981 203.688 110.933 203.977 110.843V113.868C203.261 114.062 202.521 114.155 201.779 114.144C201.056 114.19 200.343 113.961 199.783 113.502C199.223 113.043 198.858 112.388 198.762 111.671C198.096 112.464 197.268 113.104 196.333 113.549C195.398 113.993 194.378 114.231 193.343 114.246C189.325 114.246 186.923 112.009 186.923 108.732C186.923 106.023 189.428 103.549 194.012 103.549H198.478V102.509C198.478 101.17 197.927 99.3585 194.737 99.3585C192.61 99.3585 191.302 100.422 191.231 102.509M198.478 107.173V106.314H194.39C191.342 106.314 190.719 107.89 190.719 108.717C190.719 109.882 191.507 111.08 193.776 111.08C196.793 111.08 198.502 109.024 198.502 107.141M121.014 114.262C119.227 114.262 117.48 113.732 115.994 112.739C114.508 111.747 113.35 110.336 112.666 108.685C111.982 107.034 111.804 105.217 112.152 103.464C112.501 101.712 113.361 100.102 114.625 98.8382C115.889 97.5746 117.498 96.714 119.251 96.3654C121.004 96.0168 122.82 96.1957 124.471 96.8796C126.122 97.5634 127.533 98.7215 128.526 100.207C129.519 101.693 130.049 103.44 130.049 105.227C130.047 107.623 129.094 109.92 127.4 111.614C125.706 113.308 123.409 114.26 121.014 114.262ZM121.014 99.642C119.907 99.642 118.826 99.9703 117.906 100.585C116.986 101.2 116.269 102.074 115.846 103.096C115.423 104.119 115.313 105.244 115.529 106.329C115.745 107.414 116.279 108.411 117.062 109.192C117.845 109.974 118.842 110.506 119.928 110.721C121.013 110.936 122.138 110.824 123.16 110.4C124.181 109.975 125.054 109.257 125.668 108.336C126.281 107.416 126.608 106.333 126.607 105.227C126.605 103.745 126.014 102.325 124.966 101.277C123.917 100.23 122.496 99.642 121.014 99.642ZM227.041 107.85C228.176 108.157 229.302 108.496 230.436 108.843C229.649 111.348 227.286 114.231 222.559 114.231C217.833 114.231 214.39 110.56 214.39 105.203C214.39 99.8468 217.541 96.1761 222.386 96.1761C227.23 96.1761 230.216 99.4057 230.216 104.652C230.226 105.204 230.202 105.757 230.145 106.306H218.219C218.29 108.843 220.038 111.103 222.543 111.103C223.547 111.132 224.531 110.828 225.344 110.24C226.158 109.652 226.754 108.812 227.041 107.85ZM226.254 103.526C226.151 100.95 224.914 99.3033 222.37 99.3033C219.826 99.3033 218.495 101.359 218.392 103.526H226.254ZM231.807 108.811C233.044 108.575 234.249 108.331 235.446 108.126C235.691 109.496 236.51 111.143 239.29 111.143C239.905 111.143 242.961 110.906 242.961 108.709C242.961 104.557 232.327 108.851 232.327 101.399C232.327 98.4526 235.273 96.2154 238.983 96.2154C242.693 96.2154 245.844 97.7909 246.356 101.643C245.127 101.848 243.922 102.084 242.725 102.328C242.481 100.162 241.149 99.3742 239.086 99.3742C237.266 99.3742 236.029 100.335 236.029 101.399C236.029 102.809 237.337 103.187 239.393 103.392C243.331 103.801 246.632 104.66 246.632 108.709C246.632 112.348 243.481 114.27 239.29 114.27C234.832 114.27 232.288 111.907 231.807 108.811ZM203.425 99.3585V96.5226H206.411V91.4812H210.121V96.4911H213.721V99.3585H210.121V109.205C210.121 110.576 210.531 110.993 211.736 110.993C212.248 110.993 213.382 110.922 213.382 110.922V113.908C213.382 113.908 212.059 114.042 210.735 114.042C207.482 114.042 206.411 112.293 206.411 108.969V99.3585H203.425Z" fill="black"/>
<defs>
<filter id="filter0_d_0_673" x="0.880127" y="0.40426" width="340.058" height="209.149" filterUnits="userSpaceOnUse" color-interpolation-filters="sRGB">
<feFlood flood-opacity="0" result="BackgroundImageFix"/>
<feColorMatrix in="SourceAlpha" type="matrix" values="0 0 0 0 0 0 0 0 0 0 0 0 0 0 0 0 0 0 127 0" result="hardAlpha"/>
<feOffset dy="2.97872"/>
<feGaussianBlur stdDeviation="29.7872"/>
<feComposite in2="hardAlpha" operator="out"/>
<feColorMatrix type="matrix" values="0 0 0 0 0 0 0 0 0 0 0 0 0 0 0 0 0 0 0.08 0"/>
<feBlend mode="normal" in2="BackgroundImageFix" result="effect1_dropShadow_0_673"/>
<feBlend mode="normal" in="SourceGraphic" in2="effect1_dropShadow_0_673" result="shape"/>
</filter>
</defs>
</svg>
